# xmcd CD database file generated by Grip 3.2.0
# 
# Track frame offsets:
#       150
#       16702
#       39100
#       67275
#       95960
#       120870
# 
# Disc length: 1891 seconds
# 
# Revision: 1
# Processed by: cddbd v1.5.2PL0 Copyright (c) Steve Scherf et al.
# Submitted via: Grip 3.2.0
# 
DISCID=44076106
DTITLE=Max Roach - Members, Don't Git Weary
DYEAR=1968
DGENRE=Jazz
TTITLE0=Abstrutions
TTITLE1=Libra
TTITLE2=Effi
TTITLE3=Equipoise
TTITLE4=Members, Don't Git Weary
TTITLE5=Absolutions
EXTD=YEAR: 1968
EXTT0=
EXTT1=
EXTT2=
EXTT3=
EXTT4=
EXTT5=
PLAYORDER=
